# xmcd
#
# Track frame offsets: 
#        150
#        24097
#        49102
#        64625
#        77842
#        95015
#        102670
#        124027
#        147187
#        166827
#        181952
#
# Disc length: 2725 seconds
#
# Revision: 2
# Processed by: cddbd v1.5.2PL0 Copyright (c) Steve Scherf et al.
# Submitted via: ExactAudioCopy v1.1
#
DISCID=8b0aa30b
DTITLE=浅川マキ - DARKNESS Ⅲ [CD2 My　Ｆａｖｏｒｉｔｅ　Melody)
DYEAR=1997
DGENRE=Blues
TTITLE0=見えないカメラ
TTITLE1=TOKYOアパートメント
TTITLE2=あいつが一番
TTITLE3=女
TTITLE4=CHROME SITAR
TTITLE5=あの男のウォーキング・テムポ
TTITLE6=アメリカの夜
TTITLE7=ふたりは風景
TTITLE8=深い一拍
TTITLE9=孤独
TTITLE10=POSSESSION OBSESSION
EXTD=YEAR: 1997
EXTT0=
EXTT1=
EXTT2=
EXTT3=
EXTT4=
EXTT5=
EXTT6=
EXTT7=
EXTT8=
EXTT9=
EXTT10=
PLAYORDER=
